<?xml version="1.0" encoding="UTF-8"?>
<svg id="Food" xmlns="http://www.w3.org/2000/svg" viewBox="0 0 512 512">
  <defs>
    <style>
      .cls-1 {
        fill: #c69c6d;
      }

      .cls-2 {
        fill: #754c24;
      }
    </style>
  </defs>
  <path class="cls-1" d="m165.93,423.72c-4.17,0-8.06-2.25-10.15-5.86l-72.34-125.29c-3.05-5.29-1.02-9.96,0-11.72,1.02-1.76,4.04-5.86,10.15-5.86h324.81c6.11,0,9.13,4.1,10.15,5.86,1.02,1.76,3.05,6.43,0,11.72l-72.34,125.29c-2.09,3.61-5.97,5.86-10.15,5.86h-180.14Z"/>
  <path class="cls-2" d="m418.41,285c.35,0,.99,0,1.49.86.5.86.17,1.42,0,1.72l-72.34,125.29c-.31.53-.88.86-1.49.86h-180.14c-.61,0-1.18-.33-1.49-.86l-72.34-125.29c-.17-.3-.5-.86,0-1.72.5-.86,1.14-.86,1.49-.86h324.81m0-20H93.59c-16.72,0-27.17,18.1-18.81,32.57l72.34,125.29c3.88,6.72,11.05,10.86,18.81,10.86h180.14c7.76,0,14.93-4.14,18.81-10.86l72.34-125.29c8.36-14.48-2.09-32.57-18.81-32.57h0Z"/>
</svg>