<?xml version="1.0" encoding="UTF-8"?>
<svg xmlns="http://www.w3.org/2000/svg" viewBox="0 0 512 512">
  <defs>
    <style>
      .cls-1 {
        fill: #c69c6d;
      }

      .cls-2 {
        fill: #39b54a;
      }

      .cls-3 {
        fill: lime;
      }

      .cls-4 {
        fill: #ed1c24;
      }

      .cls-5 {
        fill: #754c24;
      }

      .cls-6 {
        fill: #ff0;
      }
    </style>
  </defs>
  <g id="FoodFood">
    <g>
      <circle class="cls-2" cx="153.5" cy="264.5" r="32.5"/>
      <path class="cls-3" d="m153.5,242c12.41,0,22.5,10.09,22.5,22.5s-10.09,22.5-22.5,22.5-22.5-10.09-22.5-22.5,10.09-22.5,22.5-22.5m0-20c-23.47,0-42.5,19.03-42.5,42.5s19.03,42.5,42.5,42.5,42.5-19.03,42.5-42.5-19.03-42.5-42.5-42.5h0Z"/>
    </g>
    <g>
      <ellipse class="cls-2" cx="261.82" cy="282.85" rx="55.94" ry="55.96" transform="translate(-.62 .57) rotate(-.13)"/>
      <path class="cls-3" d="m261.82,236.89c25.33,0,45.94,20.62,45.94,45.96s-20.61,45.96-45.94,45.96-45.94-20.62-45.94-45.96,20.61-45.96,45.94-45.96m0-20c-36.42,0-65.94,29.53-65.94,65.96s29.52,65.96,65.94,65.96,65.94-29.53,65.94-65.96-29.52-65.96-65.94-65.96h0Z"/>
    </g>
    <g>
      <ellipse class="cls-2" cx="336.82" cy="264.85" rx="55.94" ry="55.96" transform="translate(-.58 .74) rotate(-.13)"/>
      <path class="cls-3" d="m336.82,218.89c25.33,0,45.94,20.62,45.94,45.96s-20.61,45.96-45.94,45.96-45.94-20.62-45.94-45.96,20.61-45.96,45.94-45.96m0-20c-36.42,0-65.94,29.53-65.94,65.96s29.52,65.96,65.94,65.96,65.94-29.53,65.94-65.96-29.52-65.96-65.94-65.96h0Z"/>
    </g>
  </g>
  <g id="FoodFood3">
    <g>
      <ellipse class="cls-2" cx="289.73" cy="204.87" rx="55.96" ry="55.94" transform="translate(84.22 494.16) rotate(-89.88)"/>
      <path class="cls-6" d="m289.73,158.91c25.33,0,45.94,20.62,45.94,45.96s-20.61,45.96-45.94,45.96-45.94-20.62-45.94-45.96,20.61-45.96,45.94-45.96m0-20c-36.42,0-65.94,29.53-65.94,65.96s29.52,65.96,65.94,65.96,65.94-29.53,65.94-65.96-29.52-65.96-65.94-65.96h0Z"/>
    </g>
    <g>
      <path class="cls-2" d="m347.8,316.83c-30.84,0-55.94-25.11-55.94-55.96s25.09-55.96,55.94-55.96,55.94,25.11,55.94,55.96-25.09,55.96-55.94,55.96Z"/>
      <path class="cls-4" d="m347.8,214.9c25.33,0,45.94,20.62,45.94,45.96s-20.61,45.96-45.94,45.96-45.94-20.62-45.94-45.96,20.61-45.96,45.94-45.96m0-20c-36.42,0-65.94,29.53-65.94,65.96s29.52,65.96,65.94,65.96,65.94-29.53,65.94-65.96-29.52-65.96-65.94-65.96h0Z"/>
    </g>
    <g>
      <ellipse class="cls-2" cx="223.82" cy="240.85" rx="55.94" ry="55.96" transform="translate(-.53 .49) rotate(-.13)"/>
      <path class="cls-6" d="m223.82,194.89c25.33,0,45.94,20.62,45.94,45.96s-20.61,45.96-45.94,45.96-45.94-20.62-45.94-45.96,20.61-45.96,45.94-45.96m0-20c-36.42,0-65.94,29.53-65.94,65.96s29.52,65.96,65.94,65.96,65.94-29.53,65.94-65.96-29.52-65.96-65.94-65.96h0Z"/>
    </g>
  </g>
  <g id="Food">
    <g>
      <path class="cls-1" d="m165.93,423.72c-4.17,0-8.06-2.25-10.15-5.86l-72.34-125.29c-3.05-5.29-1.02-9.96,0-11.72,1.02-1.76,4.04-5.86,10.15-5.86h324.81c6.11,0,9.13,4.1,10.15,5.86,1.02,1.76,3.05,6.43,0,11.72l-72.34,125.29c-2.09,3.61-5.97,5.86-10.15,5.86h-180.14Z"/>
      <path class="cls-5" d="m418.41,285c.35,0,.99,0,1.49.86.5.86.17,1.42,0,1.72l-72.34,125.29c-.31.53-.88.86-1.49.86h-180.14c-.61,0-1.18-.33-1.49-.86l-72.34-125.29c-.17-.3-.5-.86,0-1.72.5-.86,1.14-.86,1.49-.86h324.81m0-20H93.59c-16.72,0-27.17,18.1-18.81,32.57l72.34,125.29c3.88,6.72,11.05,10.86,18.81,10.86h180.14c7.76,0,14.93-4.14,18.81-10.86l72.34-125.29c8.36-14.48-2.09-32.57-18.81-32.57h0Z"/>
    </g>
  </g>
</svg>