<?xml version="1.0" encoding="UTF-8"?>
<svg id="AttentionSprite" xmlns="http://www.w3.org/2000/svg" viewBox="0 0 512 512">
  <defs>
    <style>
      .cls-1 {
        fill: #a67c52;
      }

      .cls-2 {
        fill: #c69c6d;
      }

      .cls-3 {
        fill: gray;
      }

      .cls-4 {
        fill: #736357;
      }

      .cls-5 {
        fill: lime;
      }
    </style>
  </defs>
  <g>
    <path class="cls-1" d="m256,374c-51.54,0-99.85-12.75-136.03-35.91-34.8-22.27-53.97-51.43-53.97-82.09s19.17-59.81,53.97-82.09c36.19-23.16,84.5-35.91,136.03-35.91s99.84,12.75,136.03,35.91c34.8,22.27,53.97,51.43,53.97,82.09s-19.17,59.81-53.97,82.09c-36.19,23.16-84.5,35.91-136.03,35.91Z"/>
    <path class="cls-4" d="m256,148c25.24,0,49.67,3.15,72.62,9.36,21.85,5.91,41.37,14.32,58.02,24.97,31.83,20.37,49.36,46.53,49.36,73.66s-17.53,53.29-49.36,73.66c-16.65,10.66-36.17,19.06-58.02,24.97-22.95,6.21-47.39,9.36-72.62,9.36s-49.67-3.15-72.62-9.36c-21.85-5.91-41.37-14.32-58.02-24.97-31.83-20.37-49.36-46.53-49.36-73.66s17.53-53.29,49.36-73.66c16.65-10.66,36.17-19.06,58.02-24.97,22.95-6.21,47.39-9.36,72.62-9.36m0-20c-110.46,0-200,57.31-200,128s89.54,128,200,128,200-57.31,200-128-89.54-128-200-128h0Z"/>
  </g>
  <g>
    <circle class="cls-2" cx="256" cy="256" r="118"/>
    <path class="cls-3" d="m256,148c28.85,0,55.97,11.23,76.37,31.63,20.4,20.4,31.63,47.52,31.63,76.37s-11.23,55.97-31.63,76.37-47.52,31.63-76.37,31.63-55.97-11.23-76.37-31.63c-20.4-20.4-31.63-47.52-31.63-76.37s11.23-55.97,31.63-76.37c20.4-20.4,47.52-31.63,76.37-31.63m0-20c-70.69,0-128,57.31-128,128s57.31,128,128,128,128-57.31,128-128-57.31-128-128-128h0Z"/>
  </g>
  <g>
    <circle class="cls-5" cx="256" cy="256" r="59"/>
    <path d="m256,202c29.78,0,54,24.22,54,54s-24.22,54-54,54-54-24.22-54-54,24.22-54,54-54m0-10c-35.35,0-64,28.65-64,64s28.65,64,64,64,64-28.65,64-64-28.65-64-64-64h0Z"/>
  </g>
</svg>